<svg width="4" height="9" viewBox="0 0 4 9" fill="none" xmlns="http://www.w3.org/2000/svg">
<path d="M1.99791 2.49707C2.07457 2.49338 2.15071 2.51287 2.21569 2.55371C2.28068 2.59459 2.3313 2.65487 2.36119 2.72559C2.39107 2.7964 2.39876 2.87504 2.38268 2.9502L1.76744 6.85742L2.89244 5.95703C2.93018 5.92144 2.97542 5.89438 3.02428 5.87695C3.07309 5.85957 3.12494 5.85277 3.17662 5.85645C3.22842 5.86015 3.27913 5.87422 3.32506 5.89844C3.37095 5.92265 3.41093 5.95646 3.44322 5.99707C3.47554 6.03772 3.49933 6.08455 3.51256 6.13477C3.52573 6.18481 3.52837 6.23697 3.52037 6.28809C3.51229 6.33938 3.49372 6.38891 3.46569 6.43262C3.43766 6.47632 3.40053 6.51423 3.35729 6.54297L1.48229 8.04297C1.41639 8.09568 1.33426 8.12451 1.24987 8.125C1.19564 8.12557 1.14212 8.11398 1.09264 8.0918C1.04304 8.06954 0.998426 8.03712 0.962756 7.99609C0.927116 7.95509 0.900755 7.90667 0.885607 7.85449C0.870478 7.80232 0.866713 7.74707 0.874865 7.69336L1.48619 3.72656L0.736193 4.2998C0.696806 4.32934 0.652047 4.35106 0.604357 4.36328C0.556683 4.37548 0.50659 4.37805 0.457873 4.37109C0.409298 4.36409 0.36241 4.34727 0.320178 4.32227C0.277923 4.2972 0.24126 4.26392 0.211779 4.22461C0.182253 4.18523 0.160519 4.14046 0.148303 4.09277C0.136151 4.04522 0.133583 3.99586 0.14049 3.94727C0.147454 3.89851 0.163251 3.85097 0.188342 3.80859C0.213352 3.76638 0.246781 3.72968 0.285998 3.7002L1.786 2.5752C1.84677 2.52815 1.92114 2.50081 1.99791 2.49707ZM2.56237 0.25C2.87303 0.25 3.12487 0.50184 3.12487 0.8125C3.12487 1.12316 2.87303 1.375 2.56237 1.375C2.25183 1.37486 1.99987 1.12307 1.99987 0.8125C1.99987 0.501927 2.25183 0.250142 2.56237 0.25Z" fill="#2C353A"/>
</svg>
