<svg width="50" height="50" viewBox="0 0 50 50" fill="none" xmlns="http://www.w3.org/2000/svg">
<path d="M9.5 0.75C10.4673 0.75 11.25 1.53356 11.25 2.5V39.25H48C48.9673 39.25 49.75 40.0336 49.75 41C49.75 41.9664 48.9673 42.75 48 42.75H11.25V48C11.25 48.9664 10.4673 49.75 9.5 49.75C8.53272 49.75 7.75 48.9664 7.75 48V42.75H2.5C1.53272 42.75 0.75 41.9664 0.75 41C0.75 40.0336 1.53272 39.25 2.5 39.25H7.75V2.5C7.75 1.53356 8.53272 0.75 9.5 0.75ZM38.5596 1.7168C39.1544 0.531278 41.0955 0.531286 41.6904 1.7168L49.5654 17.4668C49.9977 18.3314 49.6477 19.3829 48.7832 19.8154C47.9202 20.2487 46.8687 19.8961 46.4346 19.0322L40.125 6.41309L25.9404 34.7822C25.6431 35.3752 25.0381 35.75 24.375 35.75C23.7119 35.75 23.1069 35.3752 22.8096 34.7822L14.9346 19.0322C14.5025 18.1676 14.8532 17.1169 15.7178 16.6846C16.5823 16.2525 17.6313 16.6025 18.0654 17.4668L24.375 30.0869L38.5596 1.7168Z" fill="#C9D2D2"/>
</svg>
